<mxfile host="app.diagrams.net" modified="2023-08-28T08:28:57.702Z" agent="Mozilla/5.0 (Macintosh; Intel Mac OS X 10.15; rv:109.0) Gecko/20100101 Firefox/116.0" etag="Z4mlp_A264YbHg2gE9bK" version="21.6.9" type="device">
  <diagram name="Page-1" id="ZFUPuEnc7ltLUw2-2TO0">
    <mxGraphModel dx="1735" dy="1005" grid="1" gridSize="10" guides="1" tooltips="1" connect="1" arrows="1" fold="1" page="1" pageScale="1" pageWidth="1200" pageHeight="1920" math="0" shadow="0">
      <root>
        <mxCell id="0" />
        <mxCell id="1" parent="0" />
        <mxCell id="d7aAU_o6nFD3b7b2B3WV-6" style="edgeStyle=orthogonalEdgeStyle;rounded=0;orthogonalLoop=1;jettySize=auto;html=1;entryX=0.5;entryY=0;entryDx=0;entryDy=0;" edge="1" parent="1" source="d7aAU_o6nFD3b7b2B3WV-1" target="d7aAU_o6nFD3b7b2B3WV-3">
          <mxGeometry relative="1" as="geometry" />
        </mxCell>
        <mxCell id="d7aAU_o6nFD3b7b2B3WV-29" style="edgeStyle=orthogonalEdgeStyle;rounded=0;orthogonalLoop=1;jettySize=auto;html=1;exitX=1;exitY=0.5;exitDx=0;exitDy=0;entryX=0.023;entryY=0.375;entryDx=0;entryDy=0;entryPerimeter=0;dashed=1;" edge="1" parent="1" source="d7aAU_o6nFD3b7b2B3WV-1" target="d7aAU_o6nFD3b7b2B3WV-26">
          <mxGeometry relative="1" as="geometry" />
        </mxCell>
        <mxCell id="d7aAU_o6nFD3b7b2B3WV-1" value="external LB" style="rounded=1;whiteSpace=wrap;html=1;" vertex="1" parent="1">
          <mxGeometry x="378" y="40" width="458" height="60" as="geometry" />
        </mxCell>
        <mxCell id="d7aAU_o6nFD3b7b2B3WV-60" style="edgeStyle=orthogonalEdgeStyle;rounded=0;orthogonalLoop=1;jettySize=auto;html=1;" edge="1" parent="1" source="d7aAU_o6nFD3b7b2B3WV-2" target="d7aAU_o6nFD3b7b2B3WV-41">
          <mxGeometry relative="1" as="geometry">
            <Array as="points">
              <mxPoint x="1030" y="720" />
              <mxPoint x="530" y="720" />
            </Array>
          </mxGeometry>
        </mxCell>
        <mxCell id="d7aAU_o6nFD3b7b2B3WV-2" value="internal LB" style="rounded=1;whiteSpace=wrap;html=1;" vertex="1" parent="1">
          <mxGeometry x="910" y="500" width="240" height="60" as="geometry" />
        </mxCell>
        <mxCell id="d7aAU_o6nFD3b7b2B3WV-24" style="edgeStyle=orthogonalEdgeStyle;rounded=0;orthogonalLoop=1;jettySize=auto;html=1;exitX=0.25;exitY=1;exitDx=0;exitDy=0;entryX=0.226;entryY=0.071;entryDx=0;entryDy=0;entryPerimeter=0;curved=1;" edge="1" parent="1" source="d7aAU_o6nFD3b7b2B3WV-3" target="d7aAU_o6nFD3b7b2B3WV-10">
          <mxGeometry relative="1" as="geometry" />
        </mxCell>
        <mxCell id="d7aAU_o6nFD3b7b2B3WV-3" value="decision service" style="rounded=1;whiteSpace=wrap;html=1;" vertex="1" parent="1">
          <mxGeometry x="477" y="160" width="260" height="60" as="geometry" />
        </mxCell>
        <mxCell id="d7aAU_o6nFD3b7b2B3WV-4" value="&lt;div&gt;persistance storage&lt;/div&gt;&lt;div&gt;(hbase/cassandra)&lt;/div&gt;" style="shape=cylinder3;whiteSpace=wrap;html=1;boundedLbl=1;backgroundOutline=1;size=15;" vertex="1" parent="1">
          <mxGeometry x="40" y="470" width="100" height="140" as="geometry" />
        </mxCell>
        <mxCell id="d7aAU_o6nFD3b7b2B3WV-5" value="cache (redis/memcache)" style="ellipse;whiteSpace=wrap;html=1;" vertex="1" parent="1">
          <mxGeometry x="170" y="500" width="150" height="80" as="geometry" />
        </mxCell>
        <mxCell id="d7aAU_o6nFD3b7b2B3WV-32" style="edgeStyle=orthogonalEdgeStyle;rounded=0;orthogonalLoop=1;jettySize=auto;html=1;entryX=0.75;entryY=0;entryDx=0;entryDy=0;curved=1;dashed=1;" edge="1" parent="1" source="d7aAU_o6nFD3b7b2B3WV-9" target="d7aAU_o6nFD3b7b2B3WV-19">
          <mxGeometry relative="1" as="geometry" />
        </mxCell>
        <mxCell id="d7aAU_o6nFD3b7b2B3WV-34" style="edgeStyle=orthogonalEdgeStyle;rounded=0;orthogonalLoop=1;jettySize=auto;html=1;exitX=0.75;exitY=1;exitDx=0;exitDy=0;entryX=0.679;entryY=-0.048;entryDx=0;entryDy=0;entryPerimeter=0;curved=1;dashed=1;" edge="1" parent="1" source="d7aAU_o6nFD3b7b2B3WV-9" target="d7aAU_o6nFD3b7b2B3WV-30">
          <mxGeometry relative="1" as="geometry">
            <Array as="points">
              <mxPoint x="637" y="460" />
              <mxPoint x="749" y="460" />
            </Array>
          </mxGeometry>
        </mxCell>
        <mxCell id="d7aAU_o6nFD3b7b2B3WV-49" style="edgeStyle=orthogonalEdgeStyle;rounded=0;orthogonalLoop=1;jettySize=auto;html=1;entryX=1;entryY=0.5;entryDx=0;entryDy=0;curved=1;dashed=1;" edge="1" parent="1" source="d7aAU_o6nFD3b7b2B3WV-9" target="d7aAU_o6nFD3b7b2B3WV-20">
          <mxGeometry relative="1" as="geometry">
            <Array as="points">
              <mxPoint x="607" y="370" />
              <mxPoint x="364" y="370" />
              <mxPoint x="364" y="320" />
            </Array>
          </mxGeometry>
        </mxCell>
        <mxCell id="d7aAU_o6nFD3b7b2B3WV-9" value="automate reply serivce" style="rounded=1;whiteSpace=wrap;html=1;" vertex="1" parent="1">
          <mxGeometry x="547" y="380" width="120" height="60" as="geometry" />
        </mxCell>
        <mxCell id="d7aAU_o6nFD3b7b2B3WV-25" style="edgeStyle=orthogonalEdgeStyle;rounded=0;orthogonalLoop=1;jettySize=auto;html=1;exitX=1;exitY=0;exitDx=0;exitDy=0;entryX=0.75;entryY=1;entryDx=0;entryDy=0;curved=1;" edge="1" parent="1" source="d7aAU_o6nFD3b7b2B3WV-10" target="d7aAU_o6nFD3b7b2B3WV-3">
          <mxGeometry relative="1" as="geometry" />
        </mxCell>
        <mxCell id="d7aAU_o6nFD3b7b2B3WV-36" style="edgeStyle=orthogonalEdgeStyle;orthogonalLoop=1;jettySize=auto;html=1;exitX=0;exitY=1;exitDx=0;exitDy=0;entryX=0.5;entryY=0;entryDx=0;entryDy=0;strokeColor=default;curved=1;" edge="1" parent="1" source="d7aAU_o6nFD3b7b2B3WV-10" target="d7aAU_o6nFD3b7b2B3WV-11">
          <mxGeometry relative="1" as="geometry" />
        </mxCell>
        <mxCell id="d7aAU_o6nFD3b7b2B3WV-37" style="edgeStyle=orthogonalEdgeStyle;rounded=0;orthogonalLoop=1;jettySize=auto;html=1;exitX=0.5;exitY=1;exitDx=0;exitDy=0;entryX=0.5;entryY=0;entryDx=0;entryDy=0;" edge="1" parent="1" source="d7aAU_o6nFD3b7b2B3WV-10" target="d7aAU_o6nFD3b7b2B3WV-9">
          <mxGeometry relative="1" as="geometry" />
        </mxCell>
        <mxCell id="d7aAU_o6nFD3b7b2B3WV-38" style="edgeStyle=orthogonalEdgeStyle;rounded=0;orthogonalLoop=1;jettySize=auto;html=1;curved=1;strokeColor=default;" edge="1" parent="1">
          <mxGeometry relative="1" as="geometry">
            <mxPoint x="649" y="328" as="sourcePoint" />
            <mxPoint x="800" y="377" as="targetPoint" />
          </mxGeometry>
        </mxCell>
        <mxCell id="d7aAU_o6nFD3b7b2B3WV-10" value="mq(sqs/kafka)" style="ellipse;whiteSpace=wrap;html=1;" vertex="1" parent="1">
          <mxGeometry x="547" y="260" width="120" height="80" as="geometry" />
        </mxCell>
        <mxCell id="d7aAU_o6nFD3b7b2B3WV-31" style="edgeStyle=orthogonalEdgeStyle;rounded=0;orthogonalLoop=1;jettySize=auto;html=1;entryX=0.5;entryY=0;entryDx=0;entryDy=0;curved=1;exitX=0.25;exitY=1;exitDx=0;exitDy=0;dashed=1;" edge="1" parent="1" source="d7aAU_o6nFD3b7b2B3WV-11" target="d7aAU_o6nFD3b7b2B3WV-19">
          <mxGeometry relative="1" as="geometry" />
        </mxCell>
        <mxCell id="d7aAU_o6nFD3b7b2B3WV-33" style="edgeStyle=orthogonalEdgeStyle;rounded=0;orthogonalLoop=1;jettySize=auto;html=1;entryX=0.5;entryY=0;entryDx=0;entryDy=0;curved=1;dashed=1;" edge="1" parent="1" source="d7aAU_o6nFD3b7b2B3WV-11" target="d7aAU_o6nFD3b7b2B3WV-30">
          <mxGeometry relative="1" as="geometry">
            <Array as="points">
              <mxPoint x="425" y="470" />
              <mxPoint x="727" y="470" />
            </Array>
          </mxGeometry>
        </mxCell>
        <mxCell id="d7aAU_o6nFD3b7b2B3WV-48" style="edgeStyle=orthogonalEdgeStyle;rounded=0;orthogonalLoop=1;jettySize=auto;html=1;entryX=1;entryY=0.25;entryDx=0;entryDy=0;curved=1;dashed=1;" edge="1" parent="1" source="d7aAU_o6nFD3b7b2B3WV-11" target="d7aAU_o6nFD3b7b2B3WV-20">
          <mxGeometry relative="1" as="geometry" />
        </mxCell>
        <mxCell id="d7aAU_o6nFD3b7b2B3WV-11" value="human reply service" style="rounded=1;whiteSpace=wrap;html=1;" vertex="1" parent="1">
          <mxGeometry x="365" y="380" width="120" height="60" as="geometry" />
        </mxCell>
        <mxCell id="d7aAU_o6nFD3b7b2B3WV-50" style="edgeStyle=orthogonalEdgeStyle;rounded=0;orthogonalLoop=1;jettySize=auto;html=1;entryX=1;entryY=0.75;entryDx=0;entryDy=0;curved=1;dashed=1;" edge="1" parent="1" source="d7aAU_o6nFD3b7b2B3WV-12" target="d7aAU_o6nFD3b7b2B3WV-20">
          <mxGeometry relative="1" as="geometry">
            <Array as="points">
              <mxPoint x="790" y="360" />
              <mxPoint x="455" y="360" />
              <mxPoint x="455" y="335" />
            </Array>
          </mxGeometry>
        </mxCell>
        <mxCell id="d7aAU_o6nFD3b7b2B3WV-12" value="message send service" style="rounded=1;whiteSpace=wrap;html=1;" vertex="1" parent="1">
          <mxGeometry x="730" y="380" width="120" height="60" as="geometry" />
        </mxCell>
        <mxCell id="d7aAU_o6nFD3b7b2B3WV-18" value="" style="curved=1;endArrow=classic;html=1;rounded=0;exitX=0;exitY=0.5;exitDx=0;exitDy=0;entryX=0.718;entryY=-0.036;entryDx=0;entryDy=0;entryPerimeter=0;dashed=1;" edge="1" parent="1">
          <mxGeometry width="50" height="50" relative="1" as="geometry">
            <mxPoint x="477.0000000000002" y="200.0000000000001" as="sourcePoint" />
            <mxPoint x="122.70000000000005" y="287.1200000000001" as="targetPoint" />
            <Array as="points">
              <mxPoint x="380" y="220" />
              <mxPoint x="300" y="270" />
            </Array>
          </mxGeometry>
        </mxCell>
        <mxCell id="d7aAU_o6nFD3b7b2B3WV-35" style="edgeStyle=orthogonalEdgeStyle;rounded=0;orthogonalLoop=1;jettySize=auto;html=1;entryX=0;entryY=0.5;entryDx=0;entryDy=0;dashed=1;" edge="1" parent="1" source="d7aAU_o6nFD3b7b2B3WV-19" target="d7aAU_o6nFD3b7b2B3WV-30">
          <mxGeometry relative="1" as="geometry" />
        </mxCell>
        <mxCell id="d7aAU_o6nFD3b7b2B3WV-19" value="recommendation service" style="rounded=1;whiteSpace=wrap;html=1;" vertex="1" parent="1">
          <mxGeometry x="427" y="500" width="120" height="60" as="geometry" />
        </mxCell>
        <mxCell id="d7aAU_o6nFD3b7b2B3WV-21" style="edgeStyle=orthogonalEdgeStyle;rounded=0;orthogonalLoop=1;jettySize=auto;html=1;entryX=0.5;entryY=0;entryDx=0;entryDy=0;curved=1;dashed=1;" edge="1" parent="1" source="d7aAU_o6nFD3b7b2B3WV-20" target="d7aAU_o6nFD3b7b2B3WV-5">
          <mxGeometry relative="1" as="geometry" />
        </mxCell>
        <mxCell id="d7aAU_o6nFD3b7b2B3WV-22" style="edgeStyle=orthogonalEdgeStyle;rounded=0;orthogonalLoop=1;jettySize=auto;html=1;exitX=0.25;exitY=1;exitDx=0;exitDy=0;entryX=0.5;entryY=0;entryDx=0;entryDy=0;entryPerimeter=0;dashed=1;" edge="1" parent="1" source="d7aAU_o6nFD3b7b2B3WV-20" target="d7aAU_o6nFD3b7b2B3WV-4">
          <mxGeometry relative="1" as="geometry" />
        </mxCell>
        <mxCell id="d7aAU_o6nFD3b7b2B3WV-20" value="cache service" style="rounded=1;whiteSpace=wrap;html=1;" vertex="1" parent="1">
          <mxGeometry x="60" y="290" width="120" height="60" as="geometry" />
        </mxCell>
        <mxCell id="d7aAU_o6nFD3b7b2B3WV-28" style="edgeStyle=orthogonalEdgeStyle;rounded=0;orthogonalLoop=1;jettySize=auto;html=1;entryX=0.5;entryY=0;entryDx=0;entryDy=0;dashed=1;" edge="1" parent="1" source="d7aAU_o6nFD3b7b2B3WV-26" target="d7aAU_o6nFD3b7b2B3WV-27">
          <mxGeometry relative="1" as="geometry" />
        </mxCell>
        <mxCell id="d7aAU_o6nFD3b7b2B3WV-26" value="ELK" style="ellipse;whiteSpace=wrap;html=1;dashed=1;" vertex="1" parent="1">
          <mxGeometry x="970" y="40" width="120" height="80" as="geometry" />
        </mxCell>
        <mxCell id="d7aAU_o6nFD3b7b2B3WV-27" value="billing service" style="rounded=1;whiteSpace=wrap;html=1;dashed=1;" vertex="1" parent="1">
          <mxGeometry x="970" y="200" width="120" height="60" as="geometry" />
        </mxCell>
        <mxCell id="d7aAU_o6nFD3b7b2B3WV-30" value="CRM service" style="rounded=1;whiteSpace=wrap;html=1;" vertex="1" parent="1">
          <mxGeometry x="667" y="500" width="120" height="60" as="geometry" />
        </mxCell>
        <mxCell id="d7aAU_o6nFD3b7b2B3WV-40" value="&lt;div&gt;metrics/alarm&lt;/div&gt;&lt;div&gt;（prometheus/datadog）&lt;br&gt;&lt;/div&gt;" style="ellipse;whiteSpace=wrap;html=1;" vertex="1" parent="1">
          <mxGeometry x="950" y="360" width="160" height="80" as="geometry" />
        </mxCell>
        <mxCell id="d7aAU_o6nFD3b7b2B3WV-42" style="edgeStyle=orthogonalEdgeStyle;rounded=0;orthogonalLoop=1;jettySize=auto;html=1;exitX=0;exitY=0.5;exitDx=0;exitDy=0;entryX=1;entryY=0.5;entryDx=0;entryDy=0;curved=1;dashed=1;" edge="1" parent="1" source="d7aAU_o6nFD3b7b2B3WV-41" target="d7aAU_o6nFD3b7b2B3WV-20">
          <mxGeometry relative="1" as="geometry" />
        </mxCell>
        <mxCell id="d7aAU_o6nFD3b7b2B3WV-43" style="edgeStyle=orthogonalEdgeStyle;rounded=0;orthogonalLoop=1;jettySize=auto;html=1;entryX=0.5;entryY=1;entryDx=0;entryDy=0;curved=1;dashed=1;" edge="1" parent="1" source="d7aAU_o6nFD3b7b2B3WV-41" target="d7aAU_o6nFD3b7b2B3WV-30">
          <mxGeometry relative="1" as="geometry" />
        </mxCell>
        <mxCell id="d7aAU_o6nFD3b7b2B3WV-41" value="management service" style="rounded=1;whiteSpace=wrap;html=1;" vertex="1" parent="1">
          <mxGeometry x="470" y="610" width="120" height="60" as="geometry" />
        </mxCell>
        <mxCell id="d7aAU_o6nFD3b7b2B3WV-53" value="" style="endArrow=classic;html=1;rounded=0;" edge="1" parent="1">
          <mxGeometry width="50" height="50" relative="1" as="geometry">
            <mxPoint x="10" y="780" as="sourcePoint" />
            <mxPoint x="60" y="730" as="targetPoint" />
          </mxGeometry>
        </mxCell>
        <mxCell id="d7aAU_o6nFD3b7b2B3WV-54" value="request directly" style="text;html=1;align=center;verticalAlign=middle;resizable=0;points=[];autosize=1;strokeColor=none;fillColor=none;" vertex="1" parent="1">
          <mxGeometry x="80" y="750" width="100" height="30" as="geometry" />
        </mxCell>
        <mxCell id="d7aAU_o6nFD3b7b2B3WV-55" value="" style="endArrow=classic;html=1;rounded=0;dashed=1;" edge="1" parent="1">
          <mxGeometry width="50" height="50" relative="1" as="geometry">
            <mxPoint x="10" y="870" as="sourcePoint" />
            <mxPoint x="60" y="820" as="targetPoint" />
          </mxGeometry>
        </mxCell>
        <mxCell id="d7aAU_o6nFD3b7b2B3WV-56" value="request by internal LB" style="text;html=1;align=center;verticalAlign=middle;resizable=0;points=[];autosize=1;strokeColor=none;fillColor=none;" vertex="1" parent="1">
          <mxGeometry x="60" y="838" width="140" height="30" as="geometry" />
        </mxCell>
        <mxCell id="d7aAU_o6nFD3b7b2B3WV-57" value="service" style="rounded=1;whiteSpace=wrap;html=1;" vertex="1" parent="1">
          <mxGeometry x="240" y="730" width="120" height="60" as="geometry" />
        </mxCell>
        <mxCell id="d7aAU_o6nFD3b7b2B3WV-58" value="middleware" style="ellipse;whiteSpace=wrap;html=1;" vertex="1" parent="1">
          <mxGeometry x="235" y="813" width="120" height="80" as="geometry" />
        </mxCell>
        <mxCell id="d7aAU_o6nFD3b7b2B3WV-59" value="database" style="shape=cylinder3;whiteSpace=wrap;html=1;boundedLbl=1;backgroundOutline=1;size=15;" vertex="1" parent="1">
          <mxGeometry x="467" y="720" width="60" height="80" as="geometry" />
        </mxCell>
        <mxCell id="d7aAU_o6nFD3b7b2B3WV-61" value="optional service" style="rounded=1;whiteSpace=wrap;html=1;dashed=1;" vertex="1" parent="1">
          <mxGeometry x="437" y="823" width="120" height="60" as="geometry" />
        </mxCell>
      </root>
    </mxGraphModel>
  </diagram>
</mxfile>
